{
  "accessors": [
    {
      "bufferView": 2,
      "componentType": 5126,
      "count": 1103,
      "max": [
        22.31756019592285,
        17.444759368896484,
        22.921571731567383
      ],
      "min": [
        -21.369504928588867,
        -3.9752416610717773,
        -18.206178665161133
      ],
      "type": "VEC3"
    },
    {
      "bufferView": 2,
      "byteOffset": 13236,
      "componentType": 5126,
      "count": 1103,
      "max": [
        1.0,
        1.0,
        1.0
      ],
      "min": [
        -1.0,
        -1.0,
        -1.0
      ],
      "type": "VEC3"
    },
    {
      "bufferView": 1,
      "componentType": 5126,
      "count": 1103,
      "max": [
        0.9904932379722595,
        0.9840725064277649
      ],
      "min": [
        0.25724175572395325,
        0.2963535785675049
      ],
      "type": "VEC2"
    },
    {
      "bufferView": 0,
      "componentType": 5125,
      "count": 1824,
      "type": "SCALAR"
    },
    {
      "bufferView": 2,
      "byteOffset": 26472,
      "componentType": 5126,
      "count": 3733,
      "max": [
        22.31756019592285,
        18.13132095336914,
        22.921571731567383
      ],
      "min": [
        -21.044050216674805,
        -3.8884830474853516,
        -17.877429962158203
      ],
      "type": "VEC3"
    },
    {
      "bufferView": 2,
      "byteOffset": 71268,
      "componentType": 5126,
      "count": 3733,
      "max": [
        1.0,
        1.0,
        1.0
      ],
      "min": [
        -1.0,
        -1.0,
        -1.0
      ],
      "type": "VEC3"
    },
    {
      "bufferView": 1,
      "byteOffset": 8824,
      "componentType": 5126,
      "count": 3733,
      "max": [
        0.6389626860618591,
        0.9955267310142517
      ],
      "min": [
        0.008152306079864502,
        0.3830806612968445
      ],
      "type": "VEC2"
    },
    {
      "bufferView": 0,
      "byteOffset": 7296,
      "componentType": 5125,
      "count": 6330,
      "type": "SCALAR"
    },
    {
      "bufferView": 2,
      "byteOffset": 116064,
      "componentType": 5126,
      "count": 1890,
      "max": [
        19.744831085205078,
        16.574203491210938,
        22.0474796295166
      ],
      "min": [
        -21.17476463317871,
        -3.8884830474853516,
        -18.119176864624023
      ],
      "type": "VEC3"
    },
    {
      "bufferView": 2,
      "byteOffset": 138744,
      "componentType": 5126,
      "count": 1890,
      "max": [
        1.0,
        1.0,
        1.0
      ],
      "min": [
        -1.0,
        -1.0,
        -1.0
      ],
      "type": "VEC3"
    },
    {
      "bufferView": 1,
      "byteOffset": 38688,
      "componentType": 5126,
      "count": 1890,
      "max": [
        0.9977587461471558,
        0.9949496984481812
      ],
      "min": [
        0.0708363726735115,
        0.2171616107225418
      ],
      "type": "VEC2"
    },
    {
      "bufferView": 0,
      "byteOffset": 32616,
      "componentType": 5125,
      "count": 2922,
      "type": "SCALAR"
    },
    {
      "bufferView": 2,
      "byteOffset": 161424,
      "componentType": 5126,
      "count": 4,
      "max": [
        22.31756019592285,
        -3.555241584777832,
        22.921571731567383
      ],
      "min": [
        -20.94950294494629,
        -3.555241584777832,
        -17.71617889404297
      ],
      "type": "VEC3"
    },
    {
      "bufferView": 2,
      "byteOffset": 161472,
      "componentType": 5126,
      "count": 4,
      "max": [
        0.0,
        1.0,
        0.0
      ],
      "min": [
        0.0,
        1.0,
        0.0
      ],
      "type": "VEC3"
    },
    {
      "bufferView": 1,
      "byteOffset": 53808,
      "componentType": 5126,
      "count": 4,
      "max": [
        0.260381281375885,
        0.8341366648674011
      ],
      "min": [
        0.0051100365817546844,
        0.5943780541419983
      ],
      "type": "VEC2"
    },
    {
      "bufferView": 0,
      "byteOffset": 44304,
      "componentType": 5125,
      "count": 6,
      "type": "SCALAR"
    },
    {
      "bufferView": 2,
      "byteOffset": 161520,
      "componentType": 5126,
      "count": 5770,
      "max": [
        16.488872528076172,
        15.987592697143555,
        -16.15473175048828
      ],
      "min": [
        -0.28339290618896484,
        2.35966157913208,
        -17.75790786743164
      ],
      "type": "VEC3"
    },
    {
      "bufferView": 2,
      "byteOffset": 230760,
      "componentType": 5126,
      "count": 5770,
      "max": [
        0.9999972581863403,
        1.0,
        0.9999999403953552
      ],
      "min": [
        -0.9999971985816956,
        -1.0,
        -0.9999998211860657
      ],
      "type": "VEC3"
    },
    {
      "bufferView": 1,
      "byteOffset": 53840,
      "componentType": 5126,
      "count": 5770,
      "max": [
        0.998656153678894,
        0.5117509365081787
      ],
      "min": [
        0.2659299373626709,
        0.001126021146774292
      ],
      "type": "VEC2"
    },
    {
      "bufferView": 0,
      "byteOffset": 44328,
      "componentType": 5125,
      "count": 8964,
      "type": "SCALAR"
    },
    {
      "bufferView": 2,
      "byteOffset": 300000,
      "componentType": 5126,
      "count": 4298,
      "max": [
        16.456912994384766,
        16.045387268066406,
        -16.15473175048828
      ],
      "min": [
        -0.28339290618896484,
        2.360085964202881,
        -17.75790786743164
      ],
      "type": "VEC3"
    },
    {
      "bufferView": 2,
      "byteOffset": 351576,
      "componentType": 5126,
      "count": 4298,
      "max": [
        0.9999972581863403,
        1.0,
        0.9999998807907104
      ],
      "min": [
        -0.9999972581863403,
        -1.0,
        -0.9999998807907104
      ],
      "type": "VEC3"
    },
    {
      "bufferView": 1,
      "byteOffset": 100000,
      "componentType": 5126,
      "count": 4298,
      "max": [
        0.998656153678894,
        0.49050408601760864
      ],
      "min": [
        0.27909088134765625,
        0.0006902073509991169
      ],
      "type": "VEC2"
    },
    {
      "bufferView": 0,
      "byteOffset": 80184,
      "componentType": 5125,
      "count": 6888,
      "type": "SCALAR"
    },
    {
      "bufferView": 2,
      "byteOffset": 403152,
      "componentType": 5126,
      "count": 32,
      "max": [
        8.881956100463867,
        18.144649505615234,
        17.925251007080078
      ],
      "min": [
        -6.391833305358887,
        -3.665410041809082,
        -4.17432165145874
      ],
      "type": "VEC3"
    },
    {
      "bufferView": 2,
      "byteOffset": 403536,
      "componentType": 5126,
      "count": 32,
      "max": [
        0.9908660054206848,
        -0.13485084474086761,
        0.99086594581604
      ],
      "min": [
        -0.9908658862113953,
        -0.5580435395240784,
        -0.99086594581604
      ],
      "type": "VEC3"
    },
    {
      "bufferView": 1,
      "byteOffset": 134384,
      "componentType": 5126,
      "count": 32,
      "max": [
        0.2619696259498596,
        0.34694045782089233
      ],
      "min": [
        0.0009583830833435059,
        0.008366912603378296
      ],
      "type": "VEC2"
    },
    {
      "bufferView": 0,
      "byteOffset": 107736,
      "componentType": 5125,
      "count": 48,
      "type": "SCALAR"
    }
  ],
  "asset": {
    "extras": {
      "author": "ranbul (https://sketchfab.com/ranbul)",
      "license": "CC-BY-NC-4.0 (http://creativecommons.org/licenses/by-nc/4.0/)",
      "source": "https://sketchfab.com/3d-models/cyberpunk-neon-bar-4174b9fddc6d4b679d481465993766eb",
      "title": "Cyberpunk neon bar"
    },
    "generator": "Sketchfab-12.66.0",
    "version": "2.0"
  },
  "bufferViews": [
    {
      "buffer": 0,
      "byteLength": 107928,
      "name": "floatBufferViews",
      "target": 34963
    },
    {
      "buffer": 0,
      "byteLength": 134640,
      "byteOffset": 107928,
      "byteStride": 8,
      "name": "floatBufferViews",
      "target": 34962
    },
    {
      "buffer": 0,
      "byteLength": 403920,
      "byteOffset": 242568,
      "byteStride": 12,
      "name": "floatBufferViews",
      "target": 34962
    }
  ],
  "buffers": [
    {
      "byteLength": 646488,
      "uri": "scene.bin"
    }
  ],
  "images": [
    {
      "uri": "textures/material_0_baseColor.png"
    },
    {
      "uri": "textures/material_0_emissive.png"
    },
    {
      "uri": "textures/Material_metallicRoughness.png"
    }
  ],
  "materials": [
    {
      "alphaMode": "BLEND",
      "doubleSided": true,
      "emissiveFactor": [
        1.0,
        1.0,
        1.0
      ],
      "emissiveTexture": {
        "index": 1
      },
      "name": "material_0",
      "pbrMetallicRoughness": {
        "baseColorTexture": {
          "index": 0
        },
        "metallicFactor": 0.0,
        "roughnessFactor": 0.47560975609756095
      }
    },
    {
      "doubleSided": true,
      "name": "Material",
      "pbrMetallicRoughness": {
        "baseColorTexture": {
          "index": 1
        },
        "metallicFactor": 0.0,
        "metallicRoughnessTexture": {
          "index": 2
        },
        "roughnessFactor": 0.5
      }
    },
    {
      "doubleSided": true,
      "name": "Metallic",
      "pbrMetallicRoughness": {
        "baseColorTexture": {
          "index": 1
        },
        "metallicRoughnessTexture": {
          "index": 2
        },
        "roughnessFactor": 0.5
      }
    },
    {
      "doubleSided": true,
      "emissiveFactor": [
        1.0,
        1.0,
        1.0
      ],
      "emissiveTexture": {
        "index": 1
      },
      "name": "Neon",
      "pbrMetallicRoughness": {
        "baseColorTexture": {
          "index": 1
        },
        "metallicFactor": 0.0
      }
    },
    {
      "doubleSided": true,
      "emissiveFactor": [
        1.0,
        1.0,
        1.0
      ],
      "emissiveTexture": {
        "index": 1
      },
      "name": "Neon_floor",
      "pbrMetallicRoughness": {
        "baseColorTexture": {
          "index": 1
        },
        "metallicFactor": 0.8292682926829268,
        "roughnessFactor": 0.33536585365853655
      }
    },
    {
      "doubleSided": true,
      "emissiveFactor": [
        0.15,
        0.15,
        0.15
      ],
      "emissiveTexture": {
        "index": 1
      },
      "name": "Bottles",
      "pbrMetallicRoughness": {
        "baseColorTexture": {
          "index": 1
        },
        "roughnessFactor": 0.2012195121951219
      }
    },
    {
      "doubleSided": true,
      "emissiveFactor": [
        1.0,
        1.0,
        1.0
      ],
      "emissiveTexture": {
        "index": 1
      },
      "name": "Neon_bottles",
      "pbrMetallicRoughness": {
        "baseColorTexture": {
          "index": 1
        }
      }
    }
  ],
  "meshes": [
    {
      "name": "Object_0",
      "primitives": [
        {
          "attributes": {
            "NORMAL": 1,
            "POSITION": 0,
            "TEXCOORD_0": 2
          },
          "indices": 3,
          "material": 1,
          "mode": 4
        }
      ]
    },
    {
      "name": "Object_1",
      "primitives": [
        {
          "attributes": {
            "NORMAL": 5,
            "POSITION": 4,
            "TEXCOORD_0": 6
          },
          "indices": 7,
          "material": 2,
          "mode": 4
        }
      ]
    },
    {
      "name": "Object_2",
      "primitives": [
        {
          "attributes": {
            "NORMAL": 9,
            "POSITION": 8,
            "TEXCOORD_0": 10
          },
          "indices": 11,
          "material": 3,
          "mode": 4
        }
      ]
    },
    {
      "name": "Object_3",
      "primitives": [
        {
          "attributes": {
            "NORMAL": 13,
            "POSITION": 12,
            "TEXCOORD_0": 14
          },
          "indices": 15,
          "material": 4,
          "mode": 4
        }
      ]
    },
    {
      "name": "Object_4",
      "primitives": [
        {
          "attributes": {
            "NORMAL": 17,
            "POSITION": 16,
            "TEXCOORD_0": 18
          },
          "indices": 19,
          "material": 5,
          "mode": 4
        }
      ]
    },
    {
      "name": "Object_5",
      "primitives": [
        {
          "attributes": {
            "NORMAL": 21,
            "POSITION": 20,
            "TEXCOORD_0": 22
          },
          "indices": 23,
          "material": 6,
          "mode": 4
        }
      ]
    },
    {
      "name": "Object_6",
      "primitives": [
        {
          "attributes": {
            "NORMAL": 25,
            "POSITION": 24,
            "TEXCOORD_0": 26
          },
          "indices": 27,
          "material": 0,
          "mode": 4
        }
      ]
    }
  ],
  "nodes": [
    {
      "children": [
        1
      ],
      "matrix": [
        0.7406144738197327,
        -1.491984876768508e-16,
        0.6719302535057068,
        0.0,
        0.6719302535057068,
        1.6444944824106248e-16,
        -0.7406144738197327,
        0.0,
        0.0,
        1.0,
        2.220446049250313e-16,
        0.0,
        -0.05034242570400238,
        6.627126222313542e-18,
        -0.02984592318534851,
        1.0
      ],
      "name": "Sketchfab_model"
    },
    {
      "children": [
        2
      ],
      "name": "root"
    },
    {
      "children": [
        3
      ],
      "matrix": [
        1.0,
        0.0,
        0.0,
        0.0,
        0.0,
        2.220446049250313e-16,
        1.0,
        0.0,
        0.0,
        -1.0,
        2.220446049250313e-16,
        0.0,
        0.0,
        0.0,
        0.0,
        1.0
      ],
      "name": "GLTF_SceneRootNode"
    },
    {
      "children": [
        4,
        5,
        6,
        7,
        8,
        9,
        10
      ],
      "matrix": [
        1.0,
        0.0,
        0.0,
        0.0,
        0.0,
        0.8960212469100952,
        0.0,
        0.0,
        0.0,
        0.0,
        1.0,
        0.0,
        -0.4604048728942871,
        3.7741174697875977,
        -2.437837839126587,
        1.0
      ],
      "name": "Cylinder.001_1"
    },
    {
      "mesh": 0,
      "name": "Object_4"
    },
    {
      "mesh": 1,
      "name": "Object_5"
    },
    {
      "mesh": 2,
      "name": "Object_6"
    },
    {
      "mesh": 3,
      "name": "Object_7"
    },
    {
      "mesh": 4,
      "name": "Object_8"
    },
    {
      "mesh": 5,
      "name": "Object_9"
    },
    {
      "mesh": 6,
      "name": "Object_10"
    }
  ],
  "samplers": [
    {
      "magFilter": 9729,
      "minFilter": 9987,
      "wrapS": 10497,
      "wrapT": 10497
    }
  ],
  "scene": 0,
  "scenes": [
    {
      "name": "Sketchfab_Scene",
      "nodes": [
        0
      ]
    }
  ],
  "textures": [
    {
      "sampler": 0,
      "source": 0
    },
    {
      "sampler": 0,
      "source": 1
    },
    {
      "sampler": 0,
      "source": 2
    }
  ]
}
